<?xml version="1.0" encoding="UTF-8"?>
<svg xmlns="http://www.w3.org/2000/svg" xmlns:xlink="http://www.w3.org/1999/xlink"   viewBox="0 0 192 192" version="1.1">
<g>
<path style=" stroke:none;fill-rule:nonzero;fill-opacity:1;" fill="#000000" d="M 84.675781 7.949219 C 69.074219 10.199219 55.652344 15.75 42.824219 25.199219 C 38.25 28.648438 28.722656 38.25 25.273438 42.824219 C 15.375 56.097656 9.671875 70.5 7.796875 86.472656 C 7.121094 92.097656 7.496094 105.449219 8.472656 110.621094 C 10.199219 119.546875 12.597656 126.820312 16.496094 134.769531 C 21.445312 144.667969 26.546875 151.644531 34.644531 159.445312 C 47.695312 172.121094 63.371094 180.144531 81.292969 183.445312 C 86.917969 184.496094 99.066406 184.871094 105.144531 184.195312 C 125.019531 182.019531 142.71875 173.695312 157.34375 159.59375 C 168.742188 148.570312 176.46875 135.96875 181.042969 121.117188 C 183.894531 111.742188 184.792969 104.242188 184.492188 93.292969 C 184.117188 79.644531 181.417969 68.769531 175.117188 56.46875 C 170.390625 47.167969 165.140625 40.117188 157.34375 32.542969 C 144.367188 19.867188 128.992188 11.992188 110.695312 8.542969 C 105.445312 7.492188 90.070312 7.191406 84.671875 7.941406 Z M 108.601562 15.824219 C 134.25 19.875 155.851562 35.25 167.703125 57.898438 C 173.476562 68.847656 176.402344 80.023438 176.929688 92.921875 C 178.804688 140.472656 140.554688 178.648438 93.003906 176.847656 C 83.179688 176.398438 74.480469 174.671875 66.230469 171.449219 C 39.082031 160.722656 20.554688 137.550781 15.832031 108.300781 C 14.933594 102.75 14.933594 89.324219 15.832031 83.625 C 20.40625 54.375 39.082031 30.976562 66.382812 20.324219 C 72.984375 17.699219 80.632812 15.972656 89.03125 15.074219 C 92.179688 14.847656 105.007812 15.300781 108.605469 15.824219 Z M 108.601562 15.824219 "/>
<path style=" stroke:none;fill-rule:nonzero;fill-opacity:1;" fill="#000000" d="M 54.074219 46.425781 C 50.625 47.699219 47.25 51.375 46.273438 54.75 C 45.972656 55.875 45.898438 67.800781 45.972656 96.75 L 46.121094 137.25 L 47.019531 139.050781 C 48.21875 141.375 50.695312 143.851562 53.019531 145.050781 L 54.820312 145.949219 L 137.320312 145.949219 L 139.121094 145.050781 C 141.445312 143.851562 143.921875 141.375 145.121094 139.050781 L 146.019531 137.25 L 146.019531 54.75 L 145.121094 52.949219 C 143.921875 50.625 141.445312 48.148438 139.121094 46.949219 L 137.320312 46.050781 L 96.445312 45.976562 C 62.246094 45.902344 55.269531 45.976562 54.070312 46.425781 Z M 136.5 53.925781 C 138.449219 54.75 138.601562 55.875 138.523438 66.976562 L 138.375 76.578125 L 53.625 76.578125 L 53.476562 66.976562 C 53.328125 56.027344 53.550781 54.75 55.425781 54 C 57.226562 53.175781 134.625 53.101562 136.5 53.925781 Z M 77.175781 84.527344 C 77.175781 84.675781 76.5 85.578125 75.601562 86.476562 C 69.902344 92.925781 67.800781 101.703125 69.828125 109.953125 C 72.753906 121.652344 84.152344 130.652344 96.003906 130.652344 C 108.152344 130.652344 119.628906 121.277344 122.402344 108.976562 C 123.003906 106.351562 123.003906 100.726562 122.402344 98.25 C 121.351562 93.898438 118.277344 88.199219 115.800781 85.875 C 115.277344 85.351562 114.824219 84.824219 114.824219 84.601562 C 114.824219 84.375 120.148438 84.300781 126.597656 84.375 L 138.371094 84.523438 L 138.519531 109.574219 C 138.59375 127.125 138.519531 135.074219 138.21875 136.050781 C 137.394531 138.75 139.792969 138.601562 96.070312 138.601562 C 67.871094 138.601562 56.546875 138.453125 55.644531 138.152344 C 53.320312 137.328125 53.394531 137.851562 53.394531 110.027344 C 53.394531 96.152344 53.542969 84.675781 53.695312 84.601562 C 53.996094 84.226562 77.171875 84.226562 77.171875 84.527344 Z M 102.074219 85.277344 C 109.949219 87.601562 115.199219 94.878906 115.199219 103.652344 C 115.199219 109.050781 113.550781 113.476562 110.25 116.925781 C 106.273438 121.125 102.148438 122.851562 96 122.851562 C 89.851562 122.851562 85.726562 121.125 81.75 116.925781 C 78.449219 113.402344 76.800781 109.050781 76.800781 103.800781 C 76.800781 95.175781 81.824219 87.902344 89.476562 85.425781 C 92.328125 84.449219 99.152344 84.375 102.078125 85.277344 Z M 102.074219 85.277344 "/>
<path style=" stroke:none;fill-rule:nonzero;fill-opacity:1;" fill="#000000" d="M 116.773438 62.25 C 115.273438 63.523438 114.972656 65.023438 115.722656 66.675781 C 116.621094 68.550781 117.597656 68.851562 123.296875 68.851562 L 128.398438 68.851562 L 129.523438 67.726562 C 130.796875 66.453125 130.949219 64.875 130.125 63.226562 C 129.226562 61.578125 128.101562 61.277344 122.773438 61.277344 C 118.125 61.277344 117.898438 61.351562 116.773438 62.253906 Z M 116.773438 62.25 "/>
</g>
</svg>
